<svg xmlns="http://www.w3.org/2000/svg" width="256" height="256" aria-label="TrajV JSONL Viewer" role="img" viewBox="0 0 256 256"><defs><linearGradient id="bg" x1="0" x2="0" y1="0" y2="1"><stop offset="0%" stop-color="#1e1f22"/><stop offset="100%" stop-color="#2a2d31"/></linearGradient><linearGradient id="line" x1="0" x2="1" y1="0" y2="0"><stop offset="0%" stop-color="#3d82f6"/><stop offset="100%" stop-color="#1d5fd1"/></linearGradient><filter id="shadow" width="140%" height="140%" x="-20%" y="-20%"><feDropShadow dx="0" dy="6" flood-color="#000" flood-opacity=".35" stdDeviation="8"/></filter></defs><rect width="232" height="232" x="12" y="12" fill="url(#bg)" stroke="#3a3f45" stroke-width="1" rx="28"/><g><g transform="translate(44,64)"><circle cx="8" cy="8" r="4" fill="url(#line)"/><rect width="92" height="8" x="20" y="4" fill="#4a9bff" opacity=".95" rx="4"/></g><g transform="translate(44,64) translate(0,24)"><circle cx="8" cy="8" r="4" fill="url(#line)"/><rect width="112" height="8" x="20" y="4" fill="#80b6ff" opacity=".9" rx="4"/></g><g transform="translate(44,64) translate(0,48)"><circle cx="8" cy="8" r="4" fill="url(#line)"/><rect width="76" height="8" x="20" y="4" fill="#4a9bff" opacity=".9" rx="4"/></g><g transform="translate(44,64) translate(0,72)"><circle cx="8" cy="8" r="4" fill="url(#line)"/><rect width="124" height="8" x="20" y="4" fill="#b7d4ff" opacity=".85" rx="4"/></g></g><g filter="url(#shadow)" transform="translate(150,60)"><text x="0" y="72" fill="#8ab4f8" font-family="ui-monospace, SFMono-Regular, Menlo, Monaco, Consolas, 'Liberation Mono', monospace" font-size="120" font-weight="700" opacity=".95">{</text></g><g filter="url(#shadow)" transform="translate(180,60)"><text x="0" y="72" fill="#8ab4f8" font-family="ui-monospace, SFMono-Regular, Menlo, Monaco, Consolas, 'Liberation Mono', monospace" font-size="120" font-weight="700" opacity=".95">}</text></g><g transform="translate(24,196)"><rect width="208" height="36" x="0" y="0" fill="#101317" stroke="#3a3f45" rx="10"/><text x="12" y="24" fill="#cdd3d8" font-family="system-ui, -apple-system, 'Segoe UI', Roboto, Ubuntu, 'Helvetica Neue', Arial, sans-serif" font-size="18" font-weight="700">TrajV · JSONL Viewer</text></g></svg>